<?xml version="1.0" encoding="UTF-8"?>
<svg width="48px" height="48px" viewBox="0 0 48 48" version="1.1" xmlns="http://www.w3.org/2000/svg" xmlns:xlink="http://www.w3.org/1999/xlink">
    <title>Ico/Pass</title>
    <g id="Ico/Pass" stroke="none" stroke-width="1" fill="none" fill-rule="evenodd">
        <g id="lock" transform="translate(11.000000, 7.000000)" stroke="#003246" stroke-width="1.5">
            <path d="M17.4918,10.5769 L17.4918,7.09859 C17.4918,5.21593 16.702,3.41037 15.296,2.07913 C13.8901,0.74789 11.9832,0 9.9949,0 C8.0066,0 6.0998,0.74789 4.6938,2.07913 C3.28789,3.41037 2.49805,5.21593 2.49805,7.09859 L2.49805,10.5532" id="Path"></path>
            <path d="M14.1599,10.5612 L14.1599,6.98822 C14.1599,5.94229 13.7211,4.93921 12.9401,4.19963 C12.159,3.46005 11.0996,3.04456 9.995,3.04456 C8.8904,3.04456 7.831,3.46005 7.05,4.19963 C6.2689,4.93921 5.8301,5.94229 5.8301,6.98822 L5.8301,10.5612" id="Path"></path>
            <path d="M18.334,13.0062 L1.66597,13.0062 C0.74588,13.0062 0,13.7125 0,14.5837 L0,26.4226 C0,27.2938 0.74588,28 1.66597,28 L18.334,28 C19.2541,28 20,27.2938 20,26.4226 L20,14.5837 C20,13.7125 19.2541,13.0062 18.334,13.0062 Z" id="Path" stroke-linecap="round"></path>
            <path d="M18.334,13.0062 L1.66597,13.0062 C0.74588,13.0062 0,13.7125 0,14.5837 L0,26.4226 C0,27.2938 0.74588,28 1.66597,28 L18.334,28 C19.2541,28 20,27.2938 20,26.4226 L20,14.5837 C20,13.7125 19.2541,13.0062 18.334,13.0062 Z" id="Path" stroke-linecap="round"></path>
            <path d="M10.2625,23.2676199 L9.721,23.2676199 C9.5684,23.2685 9.4174,23.2388 9.2778,23.1805 C9.1382,23.1222 9.0132,23.0366 8.9109,22.9294 C8.8087,22.8221 8.7315,22.6956 8.6845,22.5582 C8.6375,22.4208 8.6217,22.2755 8.6381,22.1318 L8.9047,19.5763 C8.9316,19.3205 9.0584,19.0833 9.2602,18.9112 C9.462,18.739 9.7243,18.6444 9.9959,18.6455887 L9.9959,18.6455887 C10.2666,18.6445 10.5279,18.7395 10.7283,18.9118 C10.9288,19.084 11.0538,19.3211 11.0788,19.5763 L11.3537,22.1318 C11.3688,22.2759 11.3519,22.4213 11.3039,22.5588 C11.2559,22.6962 11.1779,22.8226 11.075,22.9297 C10.9721,23.0368 10.8466,23.1222 10.7067,23.1804 C10.5667,23.2386 10.4153,23.2683 10.2625,23.2676199 L10.2625,23.2676199 Z" id="Path"></path>
        </g>
    </g>
</svg>